<svg id="Layer_1" data-name="Layer 1" xmlns="http://www.w3.org/2000/svg" viewBox="0 0 116.44 70.02"><defs><style>.cls-1{fill:#05cdb8;}</style></defs><title>logo</title><path class="cls-1" d="M82.56,0H87.4l8.4,14.16c-19.2-9-38.92,10.71-30.48,30.24,8.33,19.27,38.42,16.89,43.2-4.08l.48.24c1.33,5,6.51,7.1,7.44,12.24-4.8,6-9.15,11.44-16.8,14.64-17.4,7.27-35.32-2-42.24-13l-.48.24c-1.35,3.09-4.4,5.5-7,7.44C34.67,73.66,9,71.59,0,55.4c1.83-5,4.19-9.16,6.24-13.44l.24.48c3.22,4.66,4.73,9,9.6,12,11.43,7,26.28,1.4,31.68-7.44,11-18-4.36-36.66-24.24-34.56L24,12,33.12.2C43.56,2.06,52.49,7,57.12,15.32l.72-.48c2.55-5.63,10-10.36,15.84-12.72Z" transform="translate(0)"/></svg>